<svg width="11" height="11" viewBox="0 0 11 11" fill="none" xmlns="http://www.w3.org/2000/svg">
<path d="M5.10614 9.33466C5.29796 9.54395 5.2979 9.88035 5.10614 10.0895C4.91045 10.3027 4.58985 10.3033 4.39423 10.0895L0.227234 5.54462C0.130747 5.43936 0.083679 5.30197 0.083679 5.16669C0.0836913 5.03154 0.130339 4.89412 0.227234 4.78876L4.39423 0.243835C4.59002 0.0302431 4.91035 0.0302431 5.10614 0.243835C5.29785 0.453199 5.298 0.789599 5.10614 0.998718L1.2868 5.16669L5.10614 9.33466Z" fill="#AFAFAF" stroke="#AFAFAF" stroke-width="0.166667"/>
<path d="M10.1061 9.33466C10.298 9.54395 10.2979 9.88035 10.1061 10.0895C9.91045 10.3027 9.58985 10.3033 9.39423 10.0895L5.22723 5.54462C5.13075 5.43936 5.08368 5.30197 5.08368 5.16669C5.08369 5.03154 5.13034 4.89412 5.22723 4.78876L9.39423 0.243835C9.59002 0.0302431 9.91035 0.0302431 10.1061 0.243835C10.2979 0.453199 10.298 0.789599 10.1061 0.998718L6.2868 5.16669L10.1061 9.33466Z" fill="#AFAFAF" stroke="#AFAFAF" stroke-width="0.166667"/>
</svg>
