<svg width="10" height="6" viewBox="0 0 10 6" fill="none" xmlns="http://www.w3.org/2000/svg">
<path d="M1.05652 5.44671C0.93803 5.55896 0.780384 5.62049 0.617183 5.61819C0.453982 5.61589 0.298133 5.54995 0.182851 5.4344C0.0675698 5.31886 0.00197375 5.16286 4.38178e-05 4.99966C-0.00188612 4.83645 0.0600027 4.67895 0.17252 4.56071L4.54952 0.182709C4.66686 0.0657077 4.82581 6.19888e-06 4.99152 6.19888e-06C5.15723 6.19888e-06 5.31617 0.0657077 5.43352 0.182709L9.81052 4.56071C9.92801 4.67807 9.99407 4.83729 9.99416 5.00336C9.99426 5.16942 9.92838 5.32872 9.81102 5.44621C9.69366 5.5637 9.53444 5.62976 9.36837 5.62985C9.20231 5.62995 9.04301 5.56407 8.92552 5.44671L4.98952 1.50971L1.05652 5.44671Z" fill="#4A4866"/>
</svg>
