<svg width="6" height="10" viewBox="0 0 6 10" fill="none" xmlns="http://www.w3.org/2000/svg">
<path d="M0.18325 1.05714C0.070935 0.938578 0.00936633 0.78084 0.0116664 0.617544C0.0139665 0.454248 0.0799535 0.298307 0.195563 0.182958C0.311173 0.0676093 0.467262 0.0019749 0.630564 4.38434e-05C0.793865 -0.00188722 0.951462 0.0600378 1.06977 0.172621L5.45032 4.55218C5.56739 4.66959 5.63313 4.82863 5.63313 4.99443C5.63313 5.16024 5.56739 5.31928 5.45032 5.43669L1.06977 9.81625C0.952341 9.93381 0.793023 9.99991 0.626863 10C0.460702 10.0001 0.30131 9.93418 0.18375 9.81675C0.0661909 9.69932 9.39242e-05 9.54001 1.00023e-07 9.37385C-9.37242e-05 9.20768 0.0658233 9.04829 0.18325 8.93073L4.12255 4.99243L0.18325 1.05714Z" fill="white"/>
</svg>
