<svg width="6" height="10" viewBox="0 0 6 10" fill="none" xmlns="http://www.w3.org/2000/svg">
<path d="M5.45005 8.94286C5.56237 9.06142 5.62393 9.21916 5.62163 9.38246C5.61933 9.54575 5.55335 9.70169 5.43774 9.81704C5.32213 9.93239 5.16604 9.99803 5.00274 9.99996C4.83944 10.0019 4.68184 9.93996 4.56353 9.82738L0.182977 5.44782C0.0659074 5.33041 0.000167315 5.17137 0.00016733 5.00557C0.000167344 4.83976 0.0659075 4.68072 0.182977 4.56331L4.56353 0.183751C4.68096 0.0661911 4.84028 9.38832e-05 5.00644 4.37662e-07C5.1726 -9.39616e-05 5.33199 0.065824 5.44955 0.183251C5.56711 0.300678 5.63321 0.459995 5.6333 0.626155C5.6334 0.792316 5.56748 0.951708 5.45005 1.06927L1.51075 5.00757L5.45005 8.94286Z" fill="#4A4866"/>
</svg>
