<svg width="10" height="6" viewBox="0 0 10 6" fill="none" xmlns="http://www.w3.org/2000/svg">
<path d="M1.05652 5.4467C0.93803 5.55895 0.780384 5.62049 0.617183 5.61819C0.453982 5.61589 0.298133 5.54994 0.182851 5.4344C0.0675698 5.31885 0.00197375 5.16286 4.38178e-05 4.99965C-0.00188612 4.83644 0.0600027 4.67894 0.17252 4.5607L4.54952 0.182703C4.66686 0.0657015 4.82581 0 4.99152 0C5.15723 0 5.31617 0.0657015 5.43352 0.182703L9.81052 4.5607C9.92801 4.67806 9.99407 4.83729 9.99416 5.00335C9.99426 5.16941 9.92838 5.32871 9.81102 5.4462C9.69366 5.56369 9.53444 5.62975 9.36837 5.62985C9.20231 5.62994 9.04301 5.56406 8.92552 5.4467L4.98952 1.5097L1.05652 5.4467Z" fill="white"/>
</svg>
