<svg width="10" height="6" viewBox="0 0 10 6" fill="none" xmlns="http://www.w3.org/2000/svg">
<path d="M8.94286 0.18325C9.06142 0.070935 9.21916 0.00936634 9.38246 0.0116664C9.54575 0.0139665 9.70169 0.0799535 9.81704 0.195563C9.93239 0.311173 9.99803 0.467262 9.99996 0.630564C10.0019 0.793865 9.93996 0.951462 9.82738 1.06977L5.44782 5.45032C5.33041 5.56739 5.17137 5.63313 5.00557 5.63313C4.83976 5.63313 4.68072 5.56739 4.56331 5.45032L0.18375 1.06977C0.0661907 0.952341 9.34695e-05 0.793023 7.47526e-09 0.626863C-9.44083e-05 0.460702 0.0658236 0.30131 0.18325 0.183751C0.300677 0.066191 0.459994 9.4038e-05 0.626155 2.11805e-07C0.792315 -9.36144e-05 0.951708 0.0658234 1.06927 0.18325L5.00757 4.12255L8.94286 0.18325Z" fill="#4A4866"/>
</svg>
