<svg width="11" height="11" viewBox="0 0 11 11" fill="none" xmlns="http://www.w3.org/2000/svg">
<path d="M0.207642 0.956726C0.0211993 0.753297 0.0210928 0.425536 0.207642 0.222351C0.397054 0.016296 0.706738 0.0158711 0.896118 0.222351L5.06311 4.76825C5.15674 4.87039 5.20276 5.00373 5.20276 5.13544C5.20275 5.23414 5.17724 5.33381 5.12463 5.42059L5.06311 5.50262L0.896118 10.0475C0.70652 10.2544 0.397239 10.2544 0.207642 10.0475C0.0213959 9.84415 0.0212644 9.51729 0.207642 9.31415L4.03674 5.13544L0.207642 0.956726Z" fill="#AFAFAF" stroke="#AFAFAF" stroke-width="0.135417"/>
<path d="M5.20764 0.956726C5.0212 0.753297 5.02109 0.425536 5.20764 0.222351C5.39705 0.016296 5.70674 0.0158711 5.89612 0.222351L10.0631 4.76825C10.1567 4.87039 10.2028 5.00373 10.2028 5.13544C10.2027 5.23414 10.1772 5.33381 10.1246 5.42059L10.0631 5.50262L5.89612 10.0475C5.70652 10.2544 5.39724 10.2544 5.20764 10.0475C5.0214 9.84415 5.02126 9.51729 5.20764 9.31415L9.03674 5.13544L5.20764 0.956726Z" fill="#AFAFAF" stroke="#AFAFAF" stroke-width="0.135417"/>
</svg>
