<svg width="14" height="14" viewBox="0 0 14 14" fill="none" xmlns="http://www.w3.org/2000/svg">
<path d="M6.2836 0C2.82068 0 0 2.8198 0 6.28164C0 9.74349 2.82068 12.5689 6.2836 12.5689C7.76252 12.5689 9.12294 12.0508 10.1979 11.1902L12.8153 13.8055C13.0942 14.0732 13.5371 14.064 13.8049 13.7855C14.0648 13.5149 14.0651 13.0878 13.8055 12.8169L11.1881 10.2003C12.0493 9.12403 12.5685 7.76206 12.5685 6.28164C12.5685 2.8198 9.74619 0 6.2836 0ZM6.2836 1.39632C8.99167 1.39632 11.1704 3.57441 11.1704 6.28164C11.1704 8.98888 8.99167 11.1725 6.2836 11.1725C3.57552 11.1725 1.39676 8.98888 1.39676 6.28164C1.39676 3.57441 3.57552 1.39632 6.2836 1.39632Z" fill="#9E9EB0"/>
</svg>
