<svg width="16" height="16" viewBox="0 0 16 16" fill="none" xmlns="http://www.w3.org/2000/svg">
<path d="M7.18125 0C3.22363 0 0 3.22253 0 7.17879C0 11.1351 3.22363 14.3639 7.18125 14.3639C8.87145 14.3639 10.4262 13.7719 11.6548 12.7884L14.6461 15.7772C14.9648 16.0831 15.471 16.0726 15.777 15.7544C16.074 15.4451 16.0744 14.9571 15.7777 14.6474L12.7864 11.6571C13.7707 10.4271 14.364 8.87064 14.364 7.17879C14.364 3.22253 11.1385 0 7.18125 0ZM7.18125 1.59574C10.2762 1.59574 12.7662 4.08491 12.7662 7.17879C12.7662 10.2727 10.2762 12.7682 7.18125 12.7682C4.08631 12.7682 1.59629 10.2727 1.59629 7.17879C1.59629 4.08491 4.08631 1.59574 7.18125 1.59574Z" fill="#9E9EB0"/>
</svg>
