<svg width="11" height="8" viewBox="0 0 11 8" fill="none" xmlns="http://www.w3.org/2000/svg">
<path fill-rule="evenodd" clip-rule="evenodd" d="M10.7446 0.189269C11.0546 0.463269 11.0836 0.937269 10.8096 1.24927L5.05962 7.74927C4.99322 7.82435 4.91244 7.88536 4.82205 7.9287C4.73167 7.97203 4.63351 7.9968 4.53339 8.00156C4.43327 8.00631 4.33321 7.99095 4.23912 7.95638C4.14504 7.9218 4.05884 7.86872 3.98562 7.80027L0.235621 4.30027C0.0913583 4.16431 0.00678598 3.97678 0.000390831 3.77865C-0.00600432 3.58052 0.0662979 3.38792 0.201493 3.24295C0.336688 3.09797 0.523779 3.01242 0.72187 3.00498C0.919961 2.99755 1.11294 3.06884 1.25862 3.20327L4.44862 6.17327L9.68862 0.253269C9.75395 0.179363 9.83322 0.11907 9.92189 0.0758444C10.0106 0.0326185 10.1069 0.0073083 10.2053 0.00136334C10.3038 -0.00458161 10.4025 0.00895555 10.4957 0.0411993C10.5889 0.073443 10.6749 0.12376 10.7486 0.189269H10.7446Z" fill="white"/>
</svg>
